<svg width="179" height="361" viewBox="0 0 179 361" fill="none" xmlns="http://www.w3.org/2000/svg">
  <path d="M23.4132 0.75C19.6989 0.755624 16.0064 1.67316 12.7308 3.42548C9.65924 5.06853 6.98702 7.41861 4.96238 10.254C2.92809 13.1022 1.5703 16.4252 1.02718 19.8825C0.801421 21.3174 0.75 22.758 0.75 24.2066C0.75 25.4359 0.75 26.6644 0.75 27.8936C0.75 30.0445 0.75 32.1945 0.75 34.3453C0.75 37.3165 0.75 40.2884 0.75 43.2596C0.75 46.9843 0.75 50.7091 0.75 54.4347C0.75 58.8151 0.75 63.1955 0.75 67.5759C0.75 72.505 0.75 77.4342 0.75 82.3625C0.75 87.7665 0.75 93.1705 0.75 98.5745C0.75 104.387 0.75 110.198 0.75 116.01C0.75 122.123 0.75 128.236 0.75 134.349C0.75 140.651 0.75 146.954 0.75 153.256C0.75 159.705 0.75 166.152 0.75 172.601C0.75 179.061 0.75 185.522 0.75 191.982C0.75 198.411 0.75 204.841 0.75 211.27C0.75 217.535 0.75 223.8 0.75 230.066C0.75 236.123 0.75 242.179 0.75 248.236C0.75 253.974 0.75 259.71 0.75 265.448C0.75 270.759 0.75 276.069 0.75 281.38C0.75 286.198 0.75 291.015 0.75 295.833C0.75 300.082 0.75 304.332 0.75 308.582C0.75 312.157 0.75 315.733 0.75 319.309C0.75 322.113 0.75 324.917 0.75 327.721C0.75 329.684 0.75 331.649 0.75 333.612C0.75 334.636 0.75 335.659 0.75 336.683C0.75 338.851 0.985394 340.996 1.56226 343.091C2.46612 346.373 4.11476 349.435 6.35553 351.999C8.61478 354.585 11.4686 356.642 14.6349 357.972C17.471 359.163 20.5088 359.737 23.5811 359.742C25.2386 359.744 26.8953 359.742 28.5528 359.742C32.1433 359.742 35.7338 359.742 39.3235 359.742C44.3691 359.742 49.4146 359.742 54.4602 359.742C60.4482 359.742 66.4361 359.742 72.4241 359.742C78.8291 359.742 85.2332 359.742 91.6382 359.742C98.0029 359.742 104.369 359.742 110.733 359.742C116.533 359.742 122.334 359.742 128.134 359.742C132.853 359.742 137.57 359.742 142.289 359.742C145.449 359.742 148.61 359.742 151.769 359.742C153.032 359.742 154.295 359.763 155.558 359.737C159.25 359.66 162.903 358.669 166.128 356.87C169.148 355.186 171.767 352.807 173.732 349.963C175.753 347.039 177.068 343.643 177.545 340.121C177.722 338.814 177.75 337.506 177.75 336.191C177.75 334.928 177.75 333.664 177.75 332.401C177.75 330.226 177.75 328.051 177.75 325.875C177.75 322.865 177.75 319.853 177.75 316.842C177.75 313.09 177.75 309.339 177.75 305.586C177.75 301.199 177.75 296.811 177.75 292.424C177.75 287.477 177.75 282.529 177.75 277.582C177.75 272.144 177.75 266.704 177.75 261.266C177.75 255.441 177.75 249.616 177.75 243.79C177.75 237.69 177.75 231.588 177.75 225.488C177.75 219.157 177.75 212.826 177.75 206.495C177.75 200.044 177.75 193.592 177.75 187.142C177.75 180.682 177.75 174.221 177.75 167.762C177.75 161.358 177.75 154.955 177.75 148.552C177.75 142.271 177.75 135.991 177.75 129.71C177.75 123.664 177.75 117.618 177.75 111.572C177.75 105.868 177.75 100.164 177.75 94.4608C177.75 89.1661 177.75 83.8706 177.75 78.5759C177.75 73.7616 177.75 68.9474 177.75 64.1331C177.75 59.9078 177.75 55.6824 177.75 51.4571C177.75 47.9203 177.75 44.3836 177.75 40.8476C177.75 38.0637 177.75 35.2789 177.75 32.495C177.75 30.5659 177.75 28.6368 177.75 26.707C177.75 25.7235 177.75 24.7393 177.75 23.7559C177.75 21.4821 177.477 19.2333 176.836 17.0471C175.881 13.7835 174.185 10.7465 171.904 8.22366C169.585 5.65745 166.683 3.64 163.47 2.35931C160.726 1.26582 157.809 0.75482 154.859 0.751606C153.116 0.749999 151.373 0.751606 149.629 0.751606C145.958 0.751606 142.287 0.751606 138.616 0.751606C133.541 0.751606 128.465 0.751606 123.39 0.751606C117.398 0.751606 111.406 0.751606 105.413 0.751606C98.9791 0.751606 92.5453 0.751606 86.1114 0.751606C79.7587 0.751606 73.4059 0.751606 67.054 0.751606C61.3046 0.751606 55.5545 0.751606 49.8051 0.751606C45.1332 0.751606 40.4612 0.751606 35.7893 0.751606C32.6856 0.751606 29.582 0.751606 26.4783 0.751606C25.4563 0.749999 24.4352 0.75 23.4132 0.75Z" stroke="black" stroke-width="1.5" stroke-miterlimit="10" stroke-linecap="round" stroke-linejoin="round"/>
  <path d="M100.75 337.749C100.744 335.284 99.9794 332.854 98.5597 330.837C97.1441 328.826 95.1094 327.279 92.7935 326.45C90.4777 325.621 87.9244 325.525 85.5534 326.181C83.1809 326.838 81.0376 328.23 79.4753 330.133C77.9187 332.029 76.9706 334.392 76.7843 336.838C76.5963 339.3 77.1862 341.797 78.4543 343.916C79.7176 346.026 81.6307 347.721 83.8793 348.719C86.1215 349.714 88.6496 350 91.057 349.528C93.4726 349.054 95.7147 347.828 97.4172 346.049C99.1131 344.278 100.237 341.993 100.61 339.569C100.703 338.966 100.748 338.357 100.75 337.749Z" stroke="black" stroke-width="1.5" stroke-miterlimit="10" stroke-linecap="round" stroke-linejoin="round"/>
  <path d="M73.8543 19.7638C72.4051 19.7912 72.3784 23.3864 73.7969 23.6335C74.75 23.7489 78.25 23.7489 78.25 23.7489C78.25 23.7489 91.8637 23.7489 98.75 23.7489C100.593 23.7489 102.694 23.7693 104.535 23.6362C105.7 23.5511 106.293 20.8702 105.087 19.9381C104.749 19.6773 104.332 19.7638 103.971 19.7638C103.042 19.7638 102.114 19.7638 101.185 19.7638C97.93 19.7638 94.6747 19.7638 91.4194 19.7638C85.6688 19.7638 79.9182 19.7638 74.1669 19.7638C74.0627 19.7638 73.9585 19.7638 73.8543 19.7638Z" stroke="black" stroke-width="1.5" stroke-miterlimit="10" stroke-linecap="round" stroke-linejoin="round"/>
  <path d="M91.75 11.7411C91.7339 9.92129 89.4062 9.03941 88.2163 10.4396C87.034 11.8313 88.2646 14.0166 90.0661 13.7232C91.0304 13.5666 91.7415 12.7141 91.75 11.7411Z" stroke="black" stroke-width="1.5" stroke-miterlimit="10" stroke-linecap="round" stroke-linejoin="round"/>
  <path d="M61.75 21.7334C61.7489 18.8837 58.0045 17.6529 56.3205 19.9434C54.7602 22.066 56.6223 25.1339 59.2245 24.7104C60.659 24.4773 61.7489 23.1888 61.75 21.7334Z" stroke="black" stroke-width="1.5" stroke-miterlimit="10" stroke-linecap="round" stroke-linejoin="round"/>
  <path d="M167.75 40.75H10.75V319.75H167.75V40.75Z" stroke="black" stroke-width="1.5" stroke-miterlimit="10" stroke-linecap="round" stroke-linejoin="round"/>
</svg>
